<?xml version="1.0" encoding="UTF-8"?>
<svg id="Layer_1" data-name="Layer 1" xmlns="http://www.w3.org/2000/svg" xmlns:xlink="http://www.w3.org/1999/xlink" viewBox="0 0 1200 1200">
  <defs>
    <style>
      .cls-1 {
        fill: #fff;
      }

      .cls-2 {
        fill: #7dbb00;
      }

      .cls-3 {
        fill: #7fba00;
      }

      .cls-4 {
        fill: #4f8d09;
      }

      .cls-5 {
        fill: url(#linear-gradient);
      }
    </style>
    <linearGradient id="linear-gradient" x1="-1414.4" y1="-1431.85" x2="-2145.6" y2="-2133.07" gradientTransform="translate(2440 2440)" gradientUnits="userSpaceOnUse">
      <stop offset="0" stop-color="#662d91"/>
      <stop offset="1" stop-color="#842dc8"/>
    </linearGradient>
  </defs>
  <rect class="cls-5" x="0" y="0" width="1200" height="1200" rx="600" ry="600" transform="translate(1200 1200) rotate(-180)"/>
  <g>
    <g>
      <path class="cls-2" d="m939.68,243.6l-346.35,311.72v-71.2l-240.52-132.77,240.52-144.31,91.14,44.62c59.98,29.36,129.09,33.98,192.44,12.87l62.78-20.93Z"/>
      <polygon class="cls-4" points="352.8 351.36 352.8 630.37 589.47 761.21 589.47 684.24 410.52 582.26 410.52 449.49 593.32 555.32 593.32 484.13 352.8 351.36"/>
      <path class="cls-3" d="m905.04,312.88l-315.57,371.37v76.97l246.3-132.77-.97-18.23c-4.42-82.86,11.02-165.57,45.04-241.25l25.21-56.09Z"/>
    </g>
    <g>
      <path class="cls-1" d="m267.84,602.41c-2.55,2.84-62.57,70.75-76.59,174.44-9.5,70.3-5.01,144.77-4.81,147.91l22.66-1.41c-.04-.71-4.11-68.43,3.43-133.63h52.41v134.33h22.7v-343.71l-19.8,22.07Zm-52.03,164.61c9.66-53.71,32.39-96.63,49.13-122.44v122.44h-49.13Z"/>
      <path class="cls-1" d="m462.81,803.91c-21.11,0-39.78,10.56-51.08,26.65-11.3-16.09-29.97-26.65-51.08-26.65-34.43,0-62.43,28.01-62.43,62.43v58.42h22.7v-58.42c0-21.91,17.82-39.73,39.73-39.73s39.73,17.83,39.73,39.73v58.42h22.7v-58.42c0-21.91,17.83-39.73,39.73-39.73s39.73,17.83,39.73,39.73v58.42h22.7v-58.42c0-34.43-28.01-62.43-62.43-62.43Z"/>
      <path class="cls-1" d="m587.94,808.17c-32.14,0-58.29,26.15-58.29,58.3s26.15,58.29,58.29,58.29c15.92,0,30.36-6.43,40.89-16.81v16.81h17.41v-58.29c0-32.15-26.15-58.3-58.3-58.3Zm0,100.24c-23.12,0-41.94-18.82-41.94-41.94s18.82-41.94,41.94-41.94,41.94,18.82,41.94,41.94-18.82,41.94-41.94,41.94Z"/>
      <path class="cls-1" d="m847.14,808.17c-32.14,0-58.29,26.15-58.29,58.3s26.15,58.29,58.29,58.29c15.92,0,30.36-6.43,40.89-16.81v16.81h17.41v-58.29c0-32.15-26.15-58.3-58.3-58.3Zm0,100.24c-23.12,0-41.94-18.82-41.94-41.94s18.82-41.94,41.94-41.94,41.94,18.82,41.94,41.94-18.82,41.94-41.94,41.94Z"/>
      <path class="cls-1" d="m775.45,924.76h-17.03v-57.59c0-22.69-18.46-41.14-41.15-41.14s-41.15,18.46-41.15,41.14v57.59h-17.03v-57.59c0-32.08,26.1-58.17,58.18-58.17s58.18,26.1,58.18,58.17v57.59Z"/>
      <polygon class="cls-1" points="989.24 759.45 941 759.45 941 710.26 923.97 710.26 923.97 759.45 874.78 759.45 874.78 778.37 923.97 778.37 923.97 924.76 941 924.76 941 778.37 989.24 778.37 989.24 759.45"/>
      <rect class="cls-1" x="1001.54" y="812.43" width="13.24" height="112.34"/>
      <rect class="cls-1" x="1001.54" y="710.26" width="13.24" height="68.11"/>
    </g>
  </g>
</svg>